<?xml version="1.0"?>
<svg xmlns="http://www.w3.org/2000/svg" xmlns:xlink="http://www.w3.org/1999/xlink" version="1.1" id="Capa_1" x="0px" y="0px" viewBox="0 0 511 511" style="enable-background:new 0 0 511 511;" xml:space="preserve" width="512px" height="512px" class=""><g><g>
	<path d="M503.5,388h-0.681c-3.93-84.479-73.884-152-159.318-152H263v-16.5c0-8.547-6.953-15.5-15.5-15.5h-80   c-8.547,0-15.5,6.953-15.5,15.5V236h-32.121l11.814-106.322c0.93-8.368,7.98-14.678,16.399-14.678H319.5   c12.958,0,23.5-10.542,23.5-23.5S332.458,68,319.5,68H98.179c-32.761,0-59.925,24.583-63.185,57.182L8.712,388H7.5   c-4.142,0-7.5,3.358-7.5,7.5v40c0,4.142,3.358,7.5,7.5,7.5h496c4.142,0,7.5-3.358,7.5-7.5v-40C511,391.358,507.642,388,503.5,388z    M167,219.5c0-0.276,0.224-0.5,0.5-0.5h80c0.276,0,0.5,0.224,0.5,0.5V236h-81V219.5z M98.179,83H319.5c4.687,0,8.5,3.813,8.5,8.5   s-3.813,8.5-8.5,8.5H148.092c-16.073,0-29.532,12.046-31.307,28.021L104.787,236h-65.8L49.92,126.674   C52.41,101.776,73.157,83,98.179,83z M37.487,251H111.5h8h224c77.163,0,140.394,60.793,144.307,137H23.788L37.487,251z M496,428H15   v-25h481V428z" data-original="#000000" class="active-path" data-old_color="#e2e6e9" fill="#e2e6e9"/>
	<path d="M453.971,331.889C431.196,292.481,388.866,268,343.5,268c-4.142,0-7.5,3.358-7.5,7.5s3.358,7.5,7.5,7.5   c40.026,0,77.38,21.609,97.483,56.395c1.39,2.404,3.91,3.749,6.5,3.749c1.273,0,2.564-0.325,3.746-1.008   C454.817,340.063,456.044,335.475,453.971,331.889z" data-original="#000000" class="active-path" data-old_color="#e2e6e9" fill="#e2e6e9"/>
	<path d="M311.501,268h-24.005c-4.142,0-7.5,3.358-7.5,7.5s3.358,7.5,7.5,7.5h24.005c4.142,0,7.5-3.358,7.5-7.5   S315.644,268,311.501,268z" data-original="#000000" class="active-path" data-old_color="#e2e6e9" fill="#e2e6e9"/>
</g></g> </svg>
