<svg xmlns="http://www.w3.org/2000/svg" viewBox="0 0 242.63 56.79"><defs><style>.cls-1{fill:#0e2b8a;}.cls-2{fill:#fff;}.cls-3{fill:#ffb30f;}.cls-4{fill:#0d2a8a;}.cls-5{fill:#e4002b;}</style></defs><title>NAPA_AP_Web</title><g id="Final"><path class="cls-1" d="M121.89,25.86"/><path class="cls-2" d="M58.52,49.54a2.07,2.07,0,1,1,2.07,2.06A2,2,0,0,1,58.52,49.54Zm2.07,1.72a1.71,1.71,0,1,0-1.66-1.72A1.65,1.65,0,0,0,60.59,51.25Zm-.43-.53H59.8V48.36h.9c.56,0,.83.21.83.67a.61.61,0,0,1-.61.65l.67,1h-.4l-.62-1h-.41Zm.43-1.33c.3,0,.57,0,.57-.39s-.27-.35-.51-.35h-.49v.73Z"/><path class="cls-2" d="M61.9,22.88l-4.82-8.49-1.61-2.87L50.54,3a5.7,5.7,0,0,0-5-3H17.06a5.7,5.7,0,0,0-5,2.95L7.2,11.51,5.58,14.38.76,22.88A5.79,5.79,0,0,0,.81,28.7l4.8,8.53L7.18,40.1l4.89,8.56a5.71,5.71,0,0,0,5,2.94H45.53a5.7,5.7,0,0,0,5-3l4.94-8.55L57,37.23l4.8-8.53a5.79,5.79,0,0,0,.06-5.83Z"/><path class="cls-3" d="M.76,22.88A5.79,5.79,0,0,0,.81,28.7l4.8,8.53H8.53V14.37h-3Z"/><path class="cls-3" d="M57.08,14.38h-3V37.23H57l4.8-8.53a5.79,5.79,0,0,0,.06-5.83Z"/><path class="cls-3" d="M55.48,11.51,50.54,3a5.7,5.7,0,0,0-5-3H17.06a5.7,5.7,0,0,0-5,2.95L7.2,11.51Z"/><path class="cls-3" d="M7.18,40.1l4.89,8.56a5.71,5.71,0,0,0,5,2.94H45.53a5.7,5.7,0,0,0,5-3l4.94-8.55Z"/><polygon class="cls-4" points="11.29 14.37 16.21 14.37 17.87 27.24 17.87 14.37 21.16 14.37 21.16 37.23 16.24 37.23 14.58 21.41 14.58 37.23 11.29 37.23 11.29 14.37"/><path class="cls-4" d="M30.62,14.37h-6l-2,22.86h3.25l.57-5.31h2.37l.6,5.31h3.31ZM26.69,28.69l.9-11.56.88,11.56Z"/><path class="cls-4" d="M50.69,14.37h-6l-2,22.86h3.25l.57-5.31h2.37l.6,5.31h3.32ZM46.76,28.69l.9-11.56.88,11.56Z"/><path class="cls-4" d="M39.85,14.37H34.16V37.23h3.29V28.69h2.4A2.68,2.68,0,0,0,42.52,26V17.07A2.68,2.68,0,0,0,39.85,14.37ZM39.4,24.76a1,1,0,0,1-1,1h-1V17.13h1a1,1,0,0,1,1,1Z"/><path class="cls-3" d="M144.09,11.31c-4.16,0-7.3,2.24-9.48,5.38l.79-5H111.83L109,29.35a10,10,0,0,1-.57,2.45,2,2,0,0,1-2,1.34A1.39,1.39,0,0,1,105,31.77a9.11,9.11,0,0,1,.2-2.45L108,11.72h-7.57L97.5,30c0,.25-.08.53-.11.81l-1-19.11H87.11L76,39.71h7.8l1.2-3.6H90v3.6h7.83l-.23-4.22c.74,2.51,2.78,4.7,7.75,4.7,8.76,0,10.58-6.79,11.11-10.17l1.82-11.47h4.08L119,39.71h7.57L130,18.55h3.51a23.51,23.51,0,0,0-2.37,7.24c-1.08,6.83.71,14.48,8.4,14.48s11.9-7.65,13-14.48S151.77,11.31,144.09,11.31ZM90.3,23.67l-.21,6.5H86.9L89,23.67c.57-1.74,1-3.53,1.54-5.27h.07C90.49,20.15,90.36,21.93,90.3,23.67Zm54.46,2.11c-.28,1.75-1.29,7.42-4.15,7.42s-2.07-5.68-1.79-7.42,1.29-7.42,4.15-7.42S145,24,144.77,25.79Z"/><path class="cls-3" d="M237.31,18.21c1.74,0,3.31,1.6,4,3l1.35-8.5a10.56,10.56,0,0,0-5.16-1.41,9.64,9.64,0,0,0-8.39,5l.73-4.58H213.73l-.61,3.87c-1.38-3-4.89-3.87-9.4-3.87H196.4l-4.07,25.71-1.38-25.71H181.7l-3.87,9.71c0-.07,0-.14,0-.21,1.16-7.35-3.58-9.5-10.19-9.5h-6.91l-4.43,28h7.57l1.45-9.17c4.47.13,8.13-.87,10.37-3.84l-5.18,13h7.8l1.2-3.6h5.09v3.6h14.92l1.18-7.46c.22-1.37.36-2.75.54-4.12l.09-.07,2.35,11.66h8.2l-3.8-11.66a8.6,8.6,0,0,0,5.45-7,13.59,13.59,0,0,0,.18-2.49h3.06l-3.35,21.16H221l3.35-21.16H228a10.69,10.69,0,0,0-.53,2,7.31,7.31,0,0,0,.75,4.9A14.38,14.38,0,0,0,231.41,29a4.76,4.76,0,0,1,1.09,1.08,1.93,1.93,0,0,1,.35,1.56,2.48,2.48,0,0,1-2.52,1.86c-1.93,0-3.5-1.56-4.3-3.12l-1.39,8.76a13.62,13.62,0,0,0,5.5,1.15,10.81,10.81,0,0,0,10.39-9.35,7.25,7.25,0,0,0-.6-4.86,11,11,0,0,0-3.17-3.41,9.94,9.94,0,0,1-1.19-1.15,2,2,0,0,1-.5-1.56A2.29,2.29,0,0,1,237.31,18.21Zm-67.06,2.9a3.47,3.47,0,0,1-3.87,3.12l1-6.46.56,0C169.81,17.73,170.52,19.33,170.24,21.11Zm14.66,2.56-.21,6.5h-3.19l2.07-6.5c.57-1.74,1-3.53,1.54-5.27h.07C185.08,20.15,185,21.93,184.9,23.67Zm21.16-2.56a3.93,3.93,0,0,1-3.65,3.56l-.48,0L203,17.73C205.12,17.62,206.44,18.66,206.05,21.11Z"/><path class="cls-5" d="M240.17,51.4c-.37,0-1.37-.16-1.38.33s1.7.77,1.6,1.8-3.11.42-3.23,1c-.08.37.23.51.29.9a1,1,0,0,1-.42,1.22,2.32,2.32,0,0,1-.87.11,56.09,56.09,0,0,1-6.8-1.06l-.33-.05s-29.86-5.51-74.32-6.24c-31.86-.61-63.51,4.65-63.51,4.65-3.27.51-5.5,1-8.94,1.76-.4.09-1.2.42-1.37-.12s.6-.72,1-.91.72-.29,1.28-.47,1.09-.23,1-.63-1.37.05-2.06.14c-1.93.42-1.89.42-4.17.84-.93.19-2.28.46-2.32-.42-.05-.56,1.21-.79,1.58-.89,4.84-1.26,12.65-2.5,18-3.28,6.83-1,15.2-1.71,18.94-2,7.25-.62,4.34-.22,11.71-.68,4.19-.26,11.32-.12,11.32-.48s-9.16-.23-11.37-.17c-2.64.06-5,.14-11.51.56-3.27.21-14.91,1.39-19.07,1.9C90,49.89,83.36,51,81.52,51.4c-3.07.59-5.1,1.19-8.36,1.78-.53.14-1.9.29-2.33.34s-1.12,0-1.21-.55.44-1.1,1-1.25.66-.16,1-.26c.56-.22,1.57-.25,1.57-.8s-2.68-.55-2.68-1.32c0-.62.9-.71,1.48-.84.84-.23,2.36-.29,2.36-.81s-1.74-.45-1.75-1.11c0-.44.75-.58.75-.58s9.45-1.62,11.87-1.86l17-1.74,14-1,6.11-.17,18-.11,11.8.18,16.4.66,12,.81,12.84,1c4.29.44,2.74.25,14.49,1.58,10.7,1.21,33.7,4.42,33.13,5.84C241,51.29,240.81,51.4,240.17,51.4Z"/></g></svg>