<?xml version="1.0"?>
<svg xmlns="http://www.w3.org/2000/svg" xmlns:xlink="http://www.w3.org/1999/xlink" version="1.1" id="Layer_1" x="0px" y="0px" viewBox="0 0 512 512" style="enable-background:new 0 0 512 512;" xml:space="preserve" width="512px" height="512px" class=""><g><g>
	<g>
		<path d="M484.84,0H315.782c-0.07,0-0.142,0.001-0.212,0.002c-56.8,1.18-103.484,46.362-107.569,102.323h-11.227    c-75.174,0-136.937,58.492-142.184,132.354H27.16c-5.632,0-10.199,4.567-10.199,10.199v74.518c0,5.632,4.567,10.199,10.199,10.199    h377.043c5.632,0,10.199-4.567,10.199-10.199v-74.518c0-5.632-4.567-10.199-10.199-10.199h-27.429    c-5.247-73.861-67.011-132.354-142.185-132.354h-6.107c4.029-44.896,41.674-80.927,87.41-81.926H484.84    c5.632,0,10.199-4.567,10.199-10.199C495.039,4.567,490.473,0,484.84,0z M394.004,255.077v54.12H37.36v-54.12H394.004z     M234.589,122.723c63.926,0,116.538,49.351,121.735,111.956H75.041c5.198-62.605,57.81-111.956,121.733-111.956H234.589z" data-original="#000000" class="active-path" data-old_color="#e2e6e9" fill="#e2e6e9"/>
	</g>
</g><g>
	<g>
		<path d="M98.899,347.013c-5.632,0-10.199,4.567-10.199,10.199v38.927c0,5.632,4.567,10.199,10.199,10.199    s10.199-4.567,10.199-10.199v-38.927C109.098,351.58,104.531,347.013,98.899,347.013z" data-original="#000000" class="active-path" data-old_color="#e2e6e9" fill="#e2e6e9"/>
	</g>
</g><g>
	<g>
		<path d="M98.899,452.674c-5.632,0-10.199,4.567-10.199,10.199v38.927c0,5.632,4.567,10.199,10.199,10.199    s10.199-4.567,10.199-10.199v-38.927C109.098,457.242,104.531,452.674,98.899,452.674z" data-original="#000000" class="active-path" data-old_color="#e2e6e9" fill="#e2e6e9"/>
	</g>
</g><g>
	<g>
		<path d="M176.754,347.013c-5.632,0-10.199,4.567-10.199,10.199v38.927c0,5.632,4.567,10.199,10.199,10.199    c5.632,0,10.199-4.567,10.199-10.199v-38.927C186.953,351.58,182.386,347.013,176.754,347.013z" data-original="#000000" class="active-path" data-old_color="#e2e6e9" fill="#e2e6e9"/>
	</g>
</g><g>
	<g>
		<path d="M176.754,452.674c-5.632,0-10.199,4.567-10.199,10.199v38.927c0,5.632,4.567,10.199,10.199,10.199    c5.632,0,10.199-4.567,10.199-10.199v-38.927C186.953,457.242,182.386,452.674,176.754,452.674z" data-original="#000000" class="active-path" data-old_color="#e2e6e9" fill="#e2e6e9"/>
	</g>
</g><g>
	<g>
		<path d="M255.723,347.013c-5.632,0-10.199,4.567-10.199,10.199v38.927c0,5.632,4.567,10.199,10.199,10.199    s10.199-4.567,10.199-10.199v-38.927C265.922,351.58,261.355,347.013,255.723,347.013z" data-original="#000000" class="active-path" data-old_color="#e2e6e9" fill="#e2e6e9"/>
	</g>
</g><g>
	<g>
		<path d="M255.723,452.674c-5.632,0-10.199,4.567-10.199,10.199v38.927c0,5.632,4.567,10.199,10.199,10.199    s10.199-4.567,10.199-10.199v-38.927C265.922,457.242,261.355,452.674,255.723,452.674z" data-original="#000000" class="active-path" data-old_color="#e2e6e9" fill="#e2e6e9"/>
	</g>
</g><g>
	<g>
		<path d="M334.689,347.013c-5.632,0-10.199,4.567-10.199,10.199v38.927c0,5.632,4.567,10.199,10.199,10.199    s10.199-4.567,10.199-10.199v-38.927C344.888,351.58,340.322,347.013,334.689,347.013z" data-original="#000000" class="active-path" data-old_color="#e2e6e9" fill="#e2e6e9"/>
	</g>
</g><g>
	<g>
		<path d="M334.689,452.674c-5.632,0-10.199,4.567-10.199,10.199v38.927c0,5.632,4.567,10.199,10.199,10.199    s10.199-4.567,10.199-10.199v-38.927C344.888,457.242,340.322,452.674,334.689,452.674z" data-original="#000000" class="active-path" data-old_color="#e2e6e9" fill="#e2e6e9"/>
	</g>
</g></g> </svg>
