<?xml version="1.0"?>
<svg xmlns="http://www.w3.org/2000/svg" xmlns:xlink="http://www.w3.org/1999/xlink" version="1.1" id="Layer_1" x="0px" y="0px" viewBox="0 0 512 512" style="enable-background:new 0 0 512 512;" xml:space="preserve" width="512px" height="512px" class=""><g><g>
	<g>
		<path d="M486.794,454.344h-22.919V10.199C463.875,4.567,459.309,0,453.676,0H58.324c-5.633,0-10.199,4.567-10.199,10.199v444.145    H25.206c-5.633,0-10.199,4.567-10.199,10.199v37.258c0,5.632,4.566,10.199,10.199,10.199h461.587    c5.633,0,10.199-4.567,10.199-10.199v-37.258C496.993,458.91,492.427,454.344,486.794,454.344z M68.523,20.398h374.953v433.946    H68.523V20.398z M476.594,491.602H35.406v-16.859h441.189V491.602z" data-original="#000000" class="active-path" data-old_color="#e2e6e9" fill="#e2e6e9"/>
	</g>
</g><g>
	<g>
		<path d="M237.371,40.363H95.583c-5.633,0-10.199,4.567-10.199,10.199v375.687c0,5.632,4.566,10.199,10.199,10.199h141.788    c5.633,0,10.199-4.567,10.199-10.199V50.563C247.57,44.931,243.004,40.363,237.371,40.363z M105.782,60.762h99.842    c-3.257,61.391-19.51,215.545-99.842,300.493V60.762z M105.782,416.05v-26.456c43.97-38.766,76.845-98.796,97.742-178.539    c15.624-59.618,20.82-116.633,22.529-150.293h1.118V416.05H105.782z" data-original="#000000" class="active-path" data-old_color="#e2e6e9" fill="#e2e6e9"/>
	</g>
</g><g>
	<g>
		<path d="M171.134,78.656c-5.633,0-10.199,4.567-10.199,10.199v31.048c0,5.632,4.566,10.199,10.199,10.199    c5.633,0,10.199-4.567,10.199-10.199V88.855C181.334,83.223,176.766,78.656,171.134,78.656z" data-original="#000000" class="active-path" data-old_color="#e2e6e9" fill="#e2e6e9"/>
	</g>
</g><g>
	<g>
		<path d="M133.876,77.621c-5.633,0-10.199,4.567-10.199,10.199v133.508c0,5.632,4.566,10.199,10.199,10.199    c5.633,0,10.199-4.567,10.199-10.199V87.82C144.075,82.188,139.509,77.621,133.876,77.621z" data-original="#000000" class="active-path" data-old_color="#e2e6e9" fill="#e2e6e9"/>
	</g>
</g><g>
	<g>
		<path d="M416.417,40.363H274.629c-5.633,0-10.199,4.567-10.199,10.199v375.687c0,5.632,4.566,10.199,10.199,10.199h141.788    c5.633,0,10.199-4.567,10.199-10.199V50.563C426.616,44.931,422.05,40.363,416.417,40.363z M406.217,416.05H284.828V60.762h1.118    c1.709,33.66,6.906,90.675,22.529,150.293c20.898,79.742,53.773,139.772,97.742,178.539V416.05z M406.218,361.255    c-80.332-84.948-96.585-239.102-99.842-300.493h99.842V361.255z" data-original="#000000" class="active-path" data-old_color="#e2e6e9" fill="#e2e6e9"/>
	</g>
</g><g>
	<g>
		<path d="M340.866,78.656c-5.633,0-10.199,4.567-10.199,10.199v31.048c0,5.632,4.566,10.199,10.199,10.199    c5.633,0,10.199-4.567,10.199-10.199V88.855C351.065,83.223,346.499,78.656,340.866,78.656z" data-original="#000000" class="active-path" data-old_color="#e2e6e9" fill="#e2e6e9"/>
	</g>
</g><g>
	<g>
		<path d="M378.124,205.956c-5.633,0-10.199,4.567-10.199,10.199v5.174c0,5.632,4.566,10.199,10.199,10.199    s10.199-4.567,10.199-10.199v-5.174C388.323,210.522,383.757,205.956,378.124,205.956z" data-original="#000000" class="active-path" data-old_color="#e2e6e9" fill="#e2e6e9"/>
	</g>
</g><g>
	<g>
		<path d="M378.124,77.621c-5.633,0-10.199,4.567-10.199,10.199v95.215c0,5.632,4.566,10.199,10.199,10.199    s10.199-4.567,10.199-10.199V87.82C388.323,82.188,383.757,77.621,378.124,77.621z" data-original="#000000" class="active-path" data-old_color="#e2e6e9" fill="#e2e6e9"/>
	</g>
</g></g> </svg>
